<?xml version="1.0" standalone="no"?>
<!DOCTYPE svg PUBLIC "-//W3C//DTD SVG 20010904//EN"
 "http://www.w3.org/TR/2001/REC-SVG-20010904/DTD/svg10.dtd">
<svg version="1.0" xmlns="http://www.w3.org/2000/svg"
 width="689.000000pt" height="689.000000pt" viewBox="0 0 689.000000 689.000000"
 preserveAspectRatio="xMidYMid meet">
<metadata>
Created by potrace 1.11, written by Peter Selinger 2001-2013
</metadata>
<g transform="translate(0.000000,689.000000) scale(0.100000,-0.100000)"
fill="#000000" stroke="none">
<path d="M4362 6229 c-13 -7 -26 -28 -33 -51 -5 -21 -17 -42 -25 -45 -7 -3
-14 -16 -14 -29 0 -23 -2 -24 -78 -24 l-78 0 -41 -42 c-22 -24 -104 -120 -181
-215 -78 -94 -161 -191 -184 -215 l-43 -43 -207 1 c-234 2 -245 -1 -243 -66 0
-19 -2 -46 -6 -60 -3 -14 -1 -38 4 -54 8 -23 7 -30 -6 -37 -12 -7 -14 -16 -6
-41 5 -17 7 -34 4 -36 -2 -2 -38 -1 -80 3 -77 7 -92 18 -60 45 20 17 20 60 0
60 -9 0 -20 12 -26 28 -5 15 -12 34 -16 42 -3 8 -7 20 -7 25 -1 13 -162 15
-198 2 -37 -13 -35 -25 5 -30 17 -2 5 -4 -28 -3 -33 0 -58 5 -57 10 9 23 -89
38 -103 16 -3 -6 5 -10 19 -10 41 0 57 -10 46 -30 -7 -14 -18 -16 -55 -12 -45
4 -46 4 -39 -22 6 -24 4 -26 -25 -26 -36 0 -44 28 -11 37 23 6 28 57 8 69 -13
8 -178 6 -215 -3 -24 -5 -38 -43 -20 -55 7 -4 31 -8 55 -8 40 0 54 -11 32 -25
-6 -4 -41 -8 -78 -10 -57 -2 -67 -5 -64 -20 3 -16 -5 -17 -92 -10 l-96 7 0
-91 c0 -88 -1 -92 -25 -101 -44 -17 -21 -69 31 -70 20 0 44 -17 44 -32 0 -4
-11 -8 -23 -8 -25 0 -47 -33 -47 -70 0 -10 -6 -21 -12 -24 -10 -5 -10 -7 0
-12 6 -3 12 -11 12 -17 0 -22 49 -58 105 -78 l56 -19 117 24 c64 14 149 31
187 39 39 9 97 18 130 21 79 7 227 37 455 91 102 25 221 51 265 60 44 8 123
24 175 35 129 27 290 26 423 -1 56 -11 112 -27 125 -35 12 -8 28 -12 35 -8 9
5 9 4 1 -5 -9 -10 -38 -6 -135 17 -68 17 -162 33 -209 35 -47 3 -71 3 -55 1
199 -30 371 -76 359 -96 -4 -6 2 -7 16 -3 16 5 20 4 15 -5 -4 -7 -2 -10 6 -8
22 4 79 -23 72 -35 -4 -6 0 -8 11 -4 10 4 15 3 11 -3 -6 -10 37 -43 51 -38 8
3 14 -4 14 -17 0 -8 -64 26 -71 38 -4 6 -13 5 -25 -2 -13 -8 -14 -11 -4 -9 18
3 72 -31 65 -41 -5 -9 23 -7 47 4 10 4 15 11 12 17 -3 5 3 4 14 -3 12 -7 20
-17 19 -22 -1 -6 11 -13 26 -18 36 -10 59 -28 50 -42 -3 -5 -2 -7 4 -4 13 8
60 -24 79 -54 l16 -24 -20 22 c-14 16 -22 19 -31 10 -8 -8 -11 -8 -11 1 0 7
-5 12 -12 12 -6 0 -2 -10 10 -23 12 -13 19 -27 15 -32 -5 -4 -2 -5 5 -1 10 6
10 11 1 22 -7 8 -7 14 -1 14 5 0 15 -7 22 -15 9 -11 16 -12 25 -5 16 13 57
-30 46 -48 -6 -10 -10 -10 -21 3 -9 11 -9 15 -1 15 7 0 9 5 5 11 -4 8 -10 6
-17 -6 -8 -14 -11 -15 -19 -4 -7 10 -8 8 -3 -6 4 -11 7 -28 7 -37 0 -10 3 -20
9 -23 5 -4 9 -1 9 5 0 6 5 8 10 5 6 -4 8 -11 5 -16 -4 -5 -1 -9 4 -9 17 0 13
15 -9 35 -11 10 -20 23 -20 29 0 5 17 -6 37 -25 21 -18 30 -24 20 -13 -16 19
-16 22 -2 28 10 4 22 -4 34 -24 10 -17 21 -27 25 -23 4 4 4 0 0 -10 -5 -13 -2
-16 9 -11 10 3 20 -2 26 -15 9 -16 8 -22 -6 -29 -10 -5 -26 -8 -35 -7 -10 2
-18 -1 -18 -6 0 -19 -21 -7 -57 33 -67 74 -102 108 -112 108 -5 0 -11 9 -14
21 -3 12 -10 18 -16 14 -6 -3 -11 1 -11 9 0 19 11 21 28 4 7 -7 12 -10 12 -7
0 15 -88 73 -113 75 -16 1 -37 10 -46 19 -9 10 -11 15 -5 11 7 -3 15 2 19 12
6 16 7 16 16 -1 6 -9 7 -22 3 -29 -4 -6 -3 -8 4 -4 15 9 11 44 -7 51 -8 3 -19
1 -25 -5 -18 -18 -46 -11 -73 18 -15 15 -23 22 -19 15 4 -7 -30 7 -76 30 -46
23 -101 50 -123 59 -58 24 -211 59 -280 63 -57 4 -59 3 -35 -11 14 -9 17 -13
7 -10 -11 4 -31 9 -45 12 -40 10 -17 -9 26 -22 l37 -10 -75 -19 c-59 -14 -70
-20 -55 -27 16 -7 16 -8 -5 -3 -14 2 -32 5 -40 6 -8 0 1 7 20 15 l35 14 -35
-6 c-44 -8 -81 -22 -60 -24 27 -1 -12 -20 -40 -19 l-25 1 25 8 25 8 -25 0
c-14 0 -34 -3 -45 -8 l-20 -9 20 -1 c12 -1 5 -7 -20 -15 -22 -7 -33 -13 -25
-14 13 -1 13 -2 0 -11 -8 -5 -22 -10 -30 -10 -13 0 -13 1 0 10 12 8 10 10 -8
10 -13 0 -21 -4 -17 -9 3 -6 -6 -6 -25 -1 -19 5 -30 5 -30 -1 0 -6 -16 -8 -37
-4 -25 3 -31 2 -18 -3 17 -8 15 -9 -11 -15 -17 -3 -42 -4 -55 -1 -16 3 -13 0
10 -10 18 -9 38 -16 45 -16 42 0 333 -156 407 -218 127 -106 329 -323 329
-353 0 -5 -7 -9 -15 -9 -13 0 -69 54 -156 151 -14 16 -31 29 -37 29 -7 0 -12
7 -12 15 0 8 -4 15 -8 15 -4 0 -23 16 -42 35 -19 19 -41 35 -47 35 -7 0 -13 7
-13 15 0 8 -9 15 -20 15 -11 0 -20 7 -20 15 0 8 -9 15 -20 15 -11 0 -20 7 -20
15 0 8 -9 15 -20 15 -11 0 -20 7 -20 15 0 8 -9 15 -20 15 -11 0 -20 5 -20 10
0 6 -9 10 -19 10 -10 0 -21 7 -25 15 -3 8 -12 15 -21 15 -8 0 -15 5 -15 10 0
6 -9 10 -20 10 -11 0 -20 5 -20 10 0 6 -11 10 -25 10 -14 0 -25 5 -25 10 0 6
-9 10 -20 10 -11 0 -20 5 -20 10 0 6 -9 10 -19 10 -11 0 -22 4 -25 9 -3 5 -23
12 -43 16 -21 4 -42 10 -48 15 -15 12 -169 24 -162 13 8 -12 -24 -13 -40 -1
-7 5 -14 5 -18 -2 -3 -5 -16 -10 -28 -10 -18 0 -19 -2 -7 -10 9 -6 10 -10 3
-10 -6 0 -20 -3 -30 -6 -15 -5 -15 -4 -3 5 13 9 13 11 0 11 -23 0 -61 -30 -54
-42 4 -6 -1 -8 -15 -3 -15 4 -21 3 -19 -6 6 -24 -57 -27 -122 -6 -51 17 -63
18 -70 7 -7 -12 -11 -12 -25 0 -20 17 -185 28 -185 12 0 -11 18 -16 125 -32
168 -26 350 -102 538 -227 56 -37 104 -70 107 -73 3 -4 26 -21 52 -38 63 -43
237 -231 266 -287 27 -53 23 -68 -16 -55 -24 9 -25 9 -9 -4 17 -14 24 -32 8
-22 -5 4 -11 1 -13 -6 -6 -17 -94 58 -120 102 -23 38 -65 80 -80 80 -5 0 -33
15 -61 34 -108 70 -125 53 -54 -54 24 -36 50 -79 59 -96 l15 -32 -36 -10 c-20
-6 -69 -14 -109 -17 -41 -3 -86 -12 -102 -20 -18 -9 -47 -13 -80 -11 -37 3
-49 1 -41 -7 19 -19 12 -31 -7 -14 -10 10 -24 17 -32 17 -7 0 -134 41 -282 90
-148 50 -302 99 -341 110 -202 56 -330 90 -406 106 -69 15 -95 26 -143 62
-112 84 -312 181 -461 222 -242 68 -450 65 -727 -12 -78 -21 -203 -79 -216
-99 -4 -7 24 -39 72 -83 43 -39 121 -113 171 -164 103 -103 107 -114 73 -190
-11 -24 -60 -95 -110 -157 -49 -62 -109 -144 -133 -182 -101 -156 -193 -379
-216 -523 -40 -249 33 -536 192 -750 22 -30 107 -122 188 -205 87 -88 158
-170 173 -199 36 -68 34 -127 -8 -262 -101 -320 -226 -761 -226 -796 0 -32 49
-77 162 -152 298 -193 373 -225 652 -276 135 -24 196 -30 305 -30 195 0 241
13 445 118 340 177 954 521 1096 614 128 83 156 107 233 195 l87 100 172 79
c94 43 206 100 250 126 76 46 144 79 568 275 113 52 224 104 248 115 23 11 79
46 124 78 62 45 88 58 107 54 111 -20 1311 -169 1443 -180 79 -6 90 -4 122 16
20 12 36 27 36 33 -1 7 2 462 5 1012 5 872 8 1002 21 1015 13 13 16 13 25 0 7
-10 9 -250 5 -745 -3 -401 -6 -827 -7 -945 l0 -215 23 3 c24 3 121 62 102 62
-6 0 -31 -7 -54 -15 -51 -18 -63 -13 -23 10 27 15 27 15 3 10 -24 -6 -24 -5
-6 9 11 9 14 16 8 16 -7 0 -12 10 -12 23 0 32 38 109 50 102 11 -7 12 2 1 29
-7 18 -8 18 -29 -4 -12 -13 -22 -19 -22 -12 0 6 4 13 8 16 5 3 9 23 10 45 1
29 -2 39 -11 35 -10 -4 -12 15 -9 88 3 53 9 96 16 100 7 5 5 8 -5 8 -11 0 -16
9 -16 30 0 24 3 27 14 19 11 -9 13 4 15 72 1 72 2 77 8 39 6 -38 7 -40 10 -15
l3 30 7 -35 c4 -19 8 -27 9 -17 0 9 5 17 10 17 6 0 13 20 17 45 3 25 10 45 15
45 4 0 11 32 15 70 3 39 11 70 15 70 17 0 9 35 -11 48 -12 7 -18 17 -14 23 4
7 11 6 20 -2 11 -9 14 -7 14 10 0 12 -6 21 -15 21 -8 0 -15 5 -15 10 0 6 6 10
13 10 7 0 13 14 14 34 1 30 -1 33 -20 29 -20 -4 -19 -3 3 10 14 8 44 21 68 28
23 6 42 18 42 26 0 19 -20 16 -100 -13 -74 -28 -92 -27 -69 3 12 16 12 17 -1
7 -8 -6 -27 -14 -42 -18 -22 -5 -25 -3 -21 14 3 11 8 18 12 16 3 -2 5 24 5 57
-1 34 0 45 3 25 6 -54 23 -47 24 10 1 43 2 44 10 17 5 -19 6 1 2 53 -4 71 -3
82 11 82 12 0 16 -11 17 -42 l1 -43 8 50 c4 28 14 65 23 82 9 17 13 33 10 36
-3 4 -1 12 5 19 14 18 42 172 35 197 -3 13 1 29 12 41 9 10 14 23 11 29 -4 5
3 12 14 16 23 7 20 36 -8 68 -14 16 -14 19 -2 28 14 9 -19 5 -57 -6 -7 -2 -15
-1 -17 4 -3 4 35 20 84 34 108 33 130 55 130 131 0 28 -12 89 -27 137 -28 91
-28 91 -125 123 -20 6 -22 23 -8 60 7 20 6 24 -5 19 -8 -3 -15 1 -15 8 0 7 -3
9 -6 6 -4 -4 -1 -13 5 -21 7 -9 9 -21 5 -28 -5 -7 -9 -17 -9 -23 -1 -5 -5 -23
-10 -40 -7 -25 -9 -27 -15 -10 -6 18 -7 18 -12 -3 -4 -15 -2 -22 9 -22 8 0 11
-5 8 -10 -6 -9 -27 -7 -78 7 -14 4 -18 12 -14 31 3 15 -1 42 -9 61 -8 18 -14
42 -14 52 0 19 -16 24 -36 11 -7 -4 -10 -26 -9 -50 1 -23 -1 -45 -6 -47 -13
-9 -22 62 -15 118 4 29 8 63 10 76 2 16 15 30 39 43 20 10 37 23 37 28 0 9
-49 -2 -71 -16 -7 -4 -9 -3 -5 4 3 6 -3 13 -14 17 -11 3 -20 14 -20 23 0 11 3
13 8 5 4 -6 14 -13 21 -15 11 -2 14 9 13 47 -1 39 1 45 8 25 8 -24 8 -24 9 -2
1 13 7 22 17 22 13 0 15 7 11 28 -7 35 5 56 30 50 20 -5 47 15 35 27 -4 4 5 4
21 0 22 -6 27 -4 27 10 0 14 -6 16 -30 12 -16 -4 -30 -3 -30 2 0 4 26 14 59
21 63 13 89 25 79 36 -4 4 -74 -12 -155 -35 -143 -40 -153 -41 -293 -40 -97 0
-138 3 -122 9 12 5 22 18 22 28 0 17 -10 20 -80 26 -116 10 -117 30 -1 24 l92
-4 -3 35 c-3 34 -6 36 -43 42 -22 3 -44 8 -50 10 -5 2 -24 -4 -40 -13 -45 -24
-420 -118 -471 -118 -54 0 -58 16 -6 29 20 5 125 33 232 61 107 29 205 55 218
57 12 3 22 12 22 19 0 8 4 14 9 14 5 0 15 34 23 76 7 43 17 82 24 88 12 12 33
94 36 136 3 53 -23 136 -51 168 -16 17 -45 57 -65 89 -19 32 -47 72 -60 88
l-25 30 19 -40 c19 -38 27 -76 13 -62 -3 4 -12 2 -19 -4 -7 -5 -32 -8 -56 -5
-24 2 -60 5 -82 5 -31 1 -46 9 -84 46 -25 25 -50 45 -56 45 -6 0 -23 22 -38
49 -44 78 -37 76 -192 51 -38 -6 -72 -12 -75 -14 -3 -2 -28 -7 -56 -10 -73
-10 -87 -15 -81 -34 3 -9 10 -62 16 -117 22 -203 51 -431 56 -447 3 -10 1 -18
-4 -18 -5 0 -26 138 -46 308 -28 233 -41 310 -53 319 -18 14 -29 11 160 48
156 30 162 33 141 63 -19 28 -27 28 -218 -8 -88 -16 -160 -28 -161 -27 -1 1
-6 20 -11 42 -5 25 -15 40 -24 40 -8 0 -20 5 -27 11 -7 6 -86 13 -200 17 -103
4 -249 9 -323 12 -93 4 -142 2 -158 -6z m699 -109 c5 0 9 -5 9 -12 0 -6 -8 -3
-20 7 -11 10 -16 23 -12 29 4 7 8 5 10 -6 2 -10 8 -18 13 -18z m364 0 c-3 -5
-18 -9 -33 -9 l-27 1 30 8 c17 4 31 8 33 9 2 0 0 -3 -3 -9z m-72 -17 c-7 -2
-19 -2 -25 0 -7 3 -2 5 12 5 14 0 19 -2 13 -5z m-63 -13 c-34 -11 -60 -11 -35
0 11 5 29 8 40 8 16 0 15 -2 -5 -8z m-70 -9 c-19 -11 -117 -25 -108 -16 3 3
28 10 55 15 65 11 70 11 53 1z m-965 -305 c21 -1 23 -31 4 -50 -5 -6 -9 -24
-9 -42 0 -17 -7 -37 -15 -44 -20 -16 -90 -23 -142 -13 l-41 8 15 35 c9 19 15
39 14 44 -9 43 51 80 114 70 22 -3 49 -7 60 -8z m225 -26 c62 -62 -43 -168
-142 -142 -17 4 -40 20 -51 34 -18 24 -19 30 -7 59 19 44 64 69 128 69 39 0
57 -5 72 -20z m148 -30 c31 -45 38 -48 45 -20 3 11 1 20 -4 20 -5 0 -9 7 -9
16 0 14 11 16 88 10 48 -3 93 -6 101 -6 9 0 11 -8 7 -24 -3 -12 -3 -26 1 -29
10 -11 33 14 33 35 0 16 6 18 42 16 23 -2 43 -9 46 -16 2 -6 -3 -12 -11 -12
-21 0 -107 -69 -107 -85 0 -8 5 -15 10 -15 6 0 10 -4 10 -10 0 -5 -25 -10 -55
-10 -59 0 -68 9 -32 33 l22 15 -20 39 c-14 27 -27 39 -46 41 -25 3 -29 -2 -46
-55 -26 -78 -50 -82 -95 -19 -22 32 -34 42 -40 33 -12 -18 -10 -45 4 -49 6 -2
8 -10 4 -16 -8 -14 -65 -16 -85 -3 -15 10 -7 31 13 31 19 0 41 80 26 90 -21
13 -1 30 36 30 29 0 39 -6 62 -40z m-1141 -176 c-3 -3 -12 -4 -19 -1 -8 3 -5
6 6 6 11 1 17 -2 13 -5z m2454 -65 c15 -15 24 -17 33 -10 9 7 16 7 23 0 7 -7
15 -5 27 6 15 15 16 11 15 -57 -1 -40 -4 -84 -8 -98 l-7 -25 -16 25 c-59 97
-103 180 -93 180 3 0 14 -9 26 -21z m-2965 -28 c-8 -12 -55 -20 -61 -11 -6 10
12 18 43 19 13 1 21 -3 18 -8z m2304 -61 c0 -5 -4 -10 -10 -10 -5 0 -10 5 -10
10 0 6 5 10 10 10 6 0 10 -4 10 -10z m-2707 -49 c8 -32 7 -32 -183 -4 -52 8
-50 8 55 14 61 3 113 6 116 7 4 1 9 -7 12 -17z m942 -21 c4 -6 -10 -10 -34
-10 -23 0 -41 5 -41 10 0 6 15 10 34 10 19 0 38 -4 41 -10z m-15 -30 c-13 -8
-12 -10 3 -10 9 0 17 -4 17 -10 0 -13 -4 -13 -51 2 -51 15 -49 28 4 28 31 0
38 -3 27 -10z m-439 -197 c-12 -20 -14 -14 -5 12 4 9 9 14 11 11 3 -2 0 -13
-6 -23z m-63 -2 c3 -8 -1 -12 -9 -9 -7 2 -15 10 -17 17 -3 8 1 12 9 9 7 -2 15
-10 17 -17z m3072 -30 c14 -5 -27 -6 -90 -4 -63 3 -119 6 -125 8 -21 7 191 3
215 -4z m-3465 -11 c7 -11 -39 -25 -55 -15 -5 3 -8 11 -5 16 8 12 52 12 60 -1z
m1595 -10 c0 -5 -5 -10 -11 -10 -5 0 -7 5 -4 10 3 6 8 10 11 10 2 0 4 -4 4
-10z m370 1 c14 -4 20 -9 15 -13 -6 -3 -26 0 -45 8 -37 13 -14 17 30 5z m57
-17 c-3 -3 -12 -4 -19 -1 -8 3 -5 6 6 6 11 1 17 -2 13 -5z m75 -17 c49 -17 59
-28 22 -23 -51 7 -110 36 -71 36 6 0 29 -6 49 -13z m-819 -4 c-7 -2 -19 -2
-25 0 -7 3 -2 5 12 5 14 0 19 -2 13 -5z m-166 -19 c-3 -3 -12 -4 -19 -1 -8 3
-5 6 6 6 11 1 17 -2 13 -5z m1113 -26 c27 -12 50 -25 50 -30 0 -4 7 -8 15 -8
8 0 15 -4 15 -10 0 -5 -8 -10 -17 -10 -23 1 -55 25 -46 34 4 4 0 4 -9 1 -8 -3
-22 1 -31 9 -9 9 -23 16 -32 16 -9 0 -13 5 -10 10 8 13 7 13 65 -12z m-1237
-5 c-7 -2 -19 -2 -25 0 -7 3 -2 5 12 5 14 0 19 -2 13 -5z m82 -3 c-11 -5 -27
-9 -35 -9 -9 0 -8 4 5 9 11 5 27 9 35 9 9 0 8 -4 -5 -9z m66 -6 c-25 -8 -47
-12 -49 -9 -5 5 56 23 78 23 8 0 -5 -6 -29 -14z m146 10 c-3 -3 -12 -4 -19 -1
-8 3 -5 6 6 6 11 1 17 -2 13 -5z m2550 -26 c-3 -7 -5 -2 -5 12 0 14 2 19 5 13
2 -7 2 -19 0 -25z m20 -30 c-2 -13 -4 -3 -4 22 0 25 2 35 4 23 2 -13 2 -33 0
-45z m-2917 42 c-8 -5 -22 -9 -30 -9 -10 0 -8 3 5 9 27 12 43 12 25 0z m307 4
c-3 -3 -12 -4 -19 -1 -8 3 -5 6 6 6 11 1 17 -2 13 -5z m458 -12 c-3 -3 -11 0
-18 7 -9 10 -8 11 6 5 10 -3 15 -9 12 -12z m1538 -2 c16 -13 28 -16 32 -10 6
10 65 15 65 5 0 -2 -13 -25 -29 -51 -25 -38 -28 -50 -20 -72 6 -15 20 -35 32
-44 20 -15 20 -17 4 -23 -27 -11 -65 3 -72 26 -6 19 -8 19 -31 4 -14 -9 -43
-17 -66 -18 -33 -1 -45 4 -64 26 -29 34 -30 49 -4 101 34 71 102 96 153 56z
m-2253 0 c-8 -5 -22 -10 -30 -10 -13 0 -13 1 0 10 8 5 22 10 30 10 13 0 13 -1
0 -10z m317 4 c-3 -3 -12 -4 -19 -1 -8 3 -5 6 6 6 11 1 17 -2 13 -5z m912 -19
c62 -29 166 -100 231 -158 25 -22 83 -56 129 -76 66 -28 89 -43 104 -68 14
-25 16 -37 8 -52 -7 -13 -8 -28 -1 -45 13 -35 -4 -34 -37 2 -14 15 -20 18 -13
7 14 -22 -81 72 -120 120 -50 59 -144 136 -261 215 -123 82 -135 99 -40 55z
m-1342 9 c-3 -3 -12 -4 -19 -1 -8 3 -5 6 6 6 11 1 17 -2 13 -5z m1178 -4 c3
-6 -4 -10 -17 -10 -18 0 -20 2 -8 10 19 12 18 12 25 0z m-1185 -20 c-34 -11
-60 -11 -35 0 11 5 29 8 40 8 16 0 15 -2 -5 -8z m223 3 c-7 -2 -19 -2 -25 0
-7 3 -2 5 12 5 14 0 19 -2 13 -5z m284 -9 c-3 -3 -12 -4 -19 -1 -8 3 -5 6 6 6
11 1 17 -2 13 -5z m1038 -46 c6 -5 21 -18 35 -29 14 -12 35 -28 48 -37 20 -13
21 -17 8 -24 -20 -11 -39 0 -32 19 3 8 2 12 -3 8 -12 -6 -42 5 -37 14 3 4 -22
24 -55 45 -63 41 -73 69 -11 33 20 -12 42 -25 47 -29z m-1730 31 c-19 -9 23
-6 95 6 14 3 5 -2 -20 -11 -31 -10 -59 -13 -90 -8 -40 6 -42 8 -20 15 37 10
59 10 35 -2z m1418 4 c-7 -2 -19 -2 -25 0 -7 3 -2 5 12 5 14 0 19 -2 13 -5z
m-1273 -17 c-64 -18 -115 -27 -108 -20 8 8 107 32 133 32 11 0 0 -5 -25 -12z
m20 -20 c-44 -16 -106 -28 -97 -20 8 8 96 33 117 33 8 0 -1 -6 -20 -13z m15
-26 c-11 -5 -31 -8 -45 -8 -23 0 -22 1 5 8 42 11 65 11 40 0z m82 -6 c-3 -3
-12 -4 -19 -1 -8 3 -5 6 6 6 11 1 17 -2 13 -5z m-40 -10 c-3 -3 -12 -4 -19 -1
-8 3 -5 6 6 6 11 1 17 -2 13 -5z m640 0 c-3 -3 -12 -4 -19 -1 -8 3 -5 6 6 6
11 1 17 -2 13 -5z m278 -18 c23 -20 24 -24 10 -23 -18 2 -55 30 -55 42 0 11
19 4 45 -19z m157 -1 c3 0 9 -3 13 -7 4 -3 0 -5 -9 -4 -9 1 -22 8 -29 16 -10
10 -9 11 3 4 8 -5 18 -9 22 -9z m-1082 -15 c0 -5 -5 -10 -11 -10 -5 0 -7 5 -4
10 3 6 8 10 11 10 2 0 4 -4 4 -10z m1190 -97 c0 -8 -9 0 -50 45 l-45 47 48
-45 c26 -24 47 -45 47 -47z m-1950 68 c0 -6 -4 -13 -10 -16 -5 -3 -10 1 -10 9
0 9 5 16 10 16 6 0 10 -4 10 -9z m1540 -11 c0 -5 -5 -10 -11 -10 -5 0 -7 5 -4
10 3 6 8 10 11 10 2 0 4 -4 4 -10z m-1130 -4 c0 -3 -4 -8 -10 -11 -5 -3 -10
-1 -10 4 0 6 5 11 10 11 6 0 10 -2 10 -4z m1087 -12 c-3 -3 -12 -4 -19 -1 -8
3 -5 6 6 6 11 1 17 -2 13 -5z m-427 -38 c0 -2 -9 -6 -20 -9 -11 -3 -18 -1 -14
4 5 9 34 13 34 5z m961 -70 c5 3 6 -2 3 -10 -3 -9 -2 -16 4 -16 5 0 13 -8 16
-17 3 -10 -16 7 -44 37 -27 30 -49 60 -49 65 0 6 13 -7 30 -27 17 -21 35 -36
40 -32z m1739 60 c0 -3 -4 -8 -10 -11 -5 -3 -10 -1 -10 4 0 6 5 11 10 11 6 0
10 -2 10 -4z m-567 -33 c-7 -2 -21 -2 -30 0 -10 3 -4 5 12 5 17 0 24 -2 18 -5z
m155 -10 c-10 -2 -28 -2 -40 0 -13 2 -5 4 17 4 22 1 32 -1 23 -4z m432 -49 c0
-13 -4 -24 -10 -24 -5 0 -10 14 -10 31 0 17 4 28 10 24 6 -3 10 -17 10 -31z
m-670 9 c0 -18 -53 -104 -75 -123 -27 -22 -23 7 7 53 17 26 28 50 25 53 -5 6
-31 12 -54 13 -7 1 -13 6 -13 11 0 6 25 10 55 10 45 0 55 -3 55 -17z m98 10
c-15 -2 -42 -2 -60 0 -18 2 -6 4 27 4 33 0 48 -2 33 -4z m-1133 -73 c10 -11
16 -20 13 -20 -3 0 -13 9 -23 20 -10 11 -16 20 -13 20 3 0 13 -9 23 -20z
m1859 4 c3 -8 2 -12 -4 -9 -6 3 -10 10 -10 16 0 14 7 11 14 -7z m-2054 2 c0
-3 -4 -8 -10 -11 -5 -3 -10 -1 -10 4 0 6 5 11 10 11 6 0 10 -2 10 -4z m1929
-67 c-7 -24 -12 -52 -11 -61 0 -11 -5 -15 -14 -11 -15 6 -19 23 -5 23 5 0 11
19 15 42 7 43 15 62 23 55 2 -3 -1 -25 -8 -48z m-642 -25 c-3 -3 -12 -4 -19
-1 -8 3 -5 6 6 6 11 1 17 -2 13 -5z m866 -10 c-9 -4 -9 -13 -2 -30 5 -14 9
-37 9 -52 -1 -20 -6 -13 -20 28 -11 30 -19 56 -20 58 0 1 10 2 23 1 12 0 17
-3 10 -5z m-46 -36 c2 -31 1 -31 -9 -10 -6 12 -20 23 -32 23 -15 1 -13 3 9 9
17 4 30 8 30 9 1 0 1 -14 2 -31z m-233 -67 c3 -5 16 -7 28 -3 19 5 21 2 15
-26 -9 -43 8 -93 40 -119 l28 -23 -48 2 c-67 3 -97 38 -97 112 0 29 3 56 7 59
9 10 21 9 27 -2z m181 -61 c3 -5 1 -10 -4 -10 -6 0 -11 5 -11 10 0 6 2 10 4
10 3 0 8 -4 11 -10z m-2695 -4 c0 -3 -4 -8 -10 -11 -5 -3 -10 -1 -10 4 0 6 5
11 10 11 6 0 10 -2 10 -4z m1557 -728 c-4 -120 -11 -174 -32 -251 -24 -92 -83
-242 -92 -234 -2 2 6 24 16 48 56 126 101 352 101 504 0 47 3 85 6 85 4 0 4
-69 1 -152z m984 65 c-9 -15 -10 -12 -10 17 0 29 1 32 10 18 7 -12 7 -24 0
-35z m-3797 26 c26 -12 40 -35 30 -50 -3 -5 -14 -5 -25 2 -11 6 -27 8 -34 5
-20 -7 -49 18 -42 38 7 19 36 21 71 5z m2760 -21 c13 -38 -6 -78 -38 -78 -35
0 -48 48 -25 91 15 28 51 21 63 -13z m1013 -130 c-3 -8 -6 -5 -6 6 -1 11 2 17
5 13 3 -3 4 -12 1 -19z m-3589 -54 c13 -15 22 -38 22 -57 0 -18 3 -42 6 -55 5
-18 3 -21 -10 -16 -9 3 -16 12 -16 20 0 14 -53 47 -67 42 -5 -2 -10 8 -11 22
-2 14 -9 31 -14 38 -8 9 -6 16 8 27 24 18 53 10 82 -21z m2537 -14 c-3 -5 -12
-10 -18 -10 -7 0 -6 4 3 10 19 12 23 12 15 0z m-2705 -15 c0 -8 -6 -15 -14
-15 -17 0 -28 14 -19 24 12 12 33 6 33 -9z m3770 -34 c0 -10 -7 -22 -16 -25
-10 -4 -13 -2 -7 7 4 6 8 15 9 20 3 15 4 17 9 17 3 0 5 -9 5 -19z m70 5 c0 -2
-7 -7 -16 -10 -8 -3 -12 -2 -9 4 6 10 25 14 25 6z m-24 -46 c0 -12 -4 -16 -9
-11 -5 5 -6 14 -3 20 10 15 12 14 12 -9z m-3920 -14 c7 -30 -2 -47 -21 -39
-19 6 -16 63 2 63 7 0 15 -11 19 -24z m-183 -1 c22 -21 10 -55 -19 -55 -13 0
-24 5 -24 11 0 7 -8 18 -17 25 -17 12 -16 13 7 23 34 13 36 13 53 -4z m392 -6
c0 -8 -10 -15 -22 -17 -25 -4 -30 7 -11 26 15 15 33 10 33 -9z m-100 -19 c3
-5 -1 -10 -10 -10 -9 0 -13 5 -10 10 3 6 8 10 10 10 2 0 7 -4 10 -10z m3822
-52 c-3 -7 -5 -2 -5 12 0 14 2 19 5 13 2 -7 2 -19 0 -25z m-3879 -19 c-18 -12
-23 8 -6 28 12 15 13 15 16 -2 2 -10 -2 -21 -10 -26z m-150 -32 c3 -12 -3 -17
-22 -17 -25 0 -35 18 -19 34 12 12 38 2 41 -17z m-1120 -200 c3 -27 1 -28 -30
-25 -26 2 -34 8 -36 27 -2 14 0 21 6 17 6 -4 14 -2 17 4 13 20 40 5 43 -23z
m5149 1 c-3 -7 -5 -2 -5 12 0 14 2 19 5 13 2 -7 2 -19 0 -25z m-5137 -59 c15
-28 6 -49 -23 -49 -45 0 -62 38 -24 56 32 17 35 16 47 -7z m5067 -16 c-3 -10
-5 -4 -5 12 0 17 2 24 5 18 2 -7 2 -21 0 -30z m-2626 -43 c5 14 7 -39 5 -125
-3 -115 -10 -178 -30 -270 -30 -138 -49 -190 -120 -333 -71 -144 -70 -142 -78
-142 -5 0 -8 -5 -8 -10 0 -10 -38 -69 -51 -80 -4 -3 -9 -14 -13 -25 -3 -11
-43 -56 -88 -100 -44 -44 -93 -98 -107 -120 -47 -73 -85 -119 -168 -202 -87
-87 -151 -133 -349 -245 -124 -69 -184 -95 -184 -78 0 5 76 70 168 144 196
156 281 239 314 304 22 46 23 58 29 397 4 193 7 351 8 353 0 1 9 2 20 2 10 0
24 7 31 15 7 8 25 15 41 15 21 0 30 6 34 23 4 15 22 28 61 43 52 21 54 21 54
3 0 -11 5 -19 10 -19 6 0 10 18 10 40 0 27 4 40 14 40 7 0 19 7 26 15 19 23
40 18 40 -10 0 -14 9 -34 21 -46 11 -11 18 -27 15 -35 -7 -18 10 -54 24 -54 6
0 10 20 10 45 0 25 4 45 9 45 6 0 8 -15 6 -32 -27 -218 -55 -351 -101 -473
-14 -38 -28 -81 -32 -95 -5 -22 -4 -24 12 -11 24 20 110 166 152 258 83 181
117 336 155 706 1 7 5 -1 9 -18 8 -30 8 -30 9 8 0 20 6 37 11 37 6 0 11 12 11
28 2 27 2 27 7 2 l5 -25 8 25z m-2415 -36 c17 -40 7 -64 -26 -64 -32 0 -59 62
-38 87 20 25 48 15 64 -23z m-147 -176 c57 -143 195 -398 216 -398 4 0 -3 13
-14 29 -25 34 -27 49 -6 31 21 -18 19 -5 -9 38 -31 50 -68 122 -61 122 2 0 14
-18 25 -41 31 -60 91 -151 96 -146 3 3 -13 34 -35 71 -44 71 -101 181 -101
193 0 4 24 -35 53 -87 28 -52 75 -127 102 -166 52 -75 175 -217 182 -211 7 7
-9 37 -17 32 -4 -3 -10 1 -13 9 -4 10 0 12 15 8 17 -4 19 -2 13 18 -5 15 -4
20 4 16 7 -5 11 1 11 14 0 12 5 18 10 15 6 -3 10 1 10 10 0 9 5 13 11 9 6 -3
3 6 -7 21 -18 27 -18 28 1 17 11 -6 35 -26 53 -45 30 -31 32 -36 21 -60 -7
-15 -17 -27 -23 -27 -6 0 -6 -4 1 -11 14 -14 36 -2 30 15 -3 7 -2 19 3 26 6
10 13 9 33 -6 25 -18 48 -52 27 -39 -11 7 -24 -39 -17 -59 3 -7 0 -25 -8 -39
-12 -23 -10 -28 19 -55 17 -17 61 -50 98 -74 49 -32 65 -47 57 -55 -6 -6 -18
-9 -27 -6 -12 5 -14 1 -10 -15 4 -12 4 -22 2 -22 -19 0 -137 63 -214 115 -210
140 -426 421 -529 690 -29 74 -50 156 -38 145 3 -3 19 -40 36 -82z m490 8 c-3
-3 -11 5 -18 17 -13 21 -12 21 5 5 10 -10 16 -20 13 -22z m31 -42 c0 -7 6 -11
13 -9 7 3 20 -7 29 -22 10 -16 18 -22 18 -15 0 7 4 11 10 7 5 -3 6 -13 3 -23
-3 -9 -3 -14 1 -10 10 9 57 -42 50 -53 -3 -5 2 -6 10 -3 11 4 16 0 16 -12 1
-25 34 -64 54 -64 9 0 15 -5 13 -12 -1 -7 8 -17 21 -23 12 -5 22 -18 22 -27 0
-12 5 -15 17 -11 11 4 14 3 9 -6 -4 -6 -2 -19 6 -28 9 -12 2 -10 -30 6 -81 41
-219 187 -274 288 -22 40 -22 44 -3 37 8 -4 15 -12 15 -20z m-420 -29 c0 -5
-5 -3 -10 5 -5 8 -10 20 -10 25 0 6 5 3 10 -5 5 -8 10 -19 10 -25z m-40 -30
c0 -5 -5 -3 -10 5 -5 8 -10 20 -10 25 0 6 5 3 10 -5 5 -8 10 -19 10 -25z m50
-49 c0 -12 -5 -7 -19 24 -11 24 -11 24 3 6 9 -11 16 -24 16 -30z m-6 -43 c9
-18 14 -33 12 -33 -6 0 -36 55 -36 66 0 11 5 3 24 -33z m597 -10 c13 -16 12
-17 -3 -4 -10 7 -18 15 -18 17 0 8 8 3 21 -13z m-546 -79 c15 -25 25 -47 23
-49 -2 -2 -16 18 -31 46 -35 62 -28 65 8 3z m3350 -44 c-3 -5 -12 -10 -18 -10
-7 0 -6 4 3 10 19 12 23 12 15 0z m-3170 -292 c39 -40 50 -54 25 -33 -44 39
-106 105 -98 105 2 0 35 -32 73 -72z m145 -1358 c0 -5 -4 -10 -9 -10 -6 0 -13
5 -16 10 -3 6 1 10 9 10 9 0 16 -4 16 -10z"/>
<path d="M4146 5741 c5 -4 26 -11 47 -14 33 -5 37 -4 27 8 -7 8 -29 15 -48 15
-21 0 -32 -4 -26 -9z"/>
<path d="M4106 5676 c7 -19 58 -30 80 -18 14 8 12 11 -17 17 -19 3 -42 9 -51
11 -13 4 -16 1 -12 -10z"/>
<path d="M4355 5715 c-28 -27 -31 -45 -13 -63 31 -31 98 4 98 52 0 42 -48 48
-85 11z"/>
<path d="M5772 4913 c-19 -7 -54 -81 -50 -106 5 -36 41 -33 76 7 31 35 33 63
9 94 -10 13 -14 13 -35 5z"/>
<path d="M6501 4258 c0 -7 4 -22 9 -33 8 -18 9 -17 9 7 1 15 -3 30 -9 33 -5 3
-10 0 -9 -7z"/>
<path d="M1401 2964 c0 -11 3 -14 6 -6 3 7 2 16 -1 19 -3 4 -6 -2 -5 -13z"/>
<path d="M1415 2890 c3 -5 8 -10 11 -10 2 0 4 5 4 10 0 6 -5 10 -11 10 -5 0
-7 -4 -4 -10z"/>
<path d="M1430 2821 c0 -5 5 -13 10 -16 6 -3 10 -2 10 4 0 5 -4 13 -10 16 -5
3 -10 2 -10 -4z"/>
<path d="M1425 2780 c3 -5 8 -10 11 -10 2 0 4 5 4 10 0 6 -5 10 -11 10 -5 0
-7 -4 -4 -10z"/>
<path d="M1530 2287 c0 -11 51 -84 90 -127 23 -26 20 -20 -9 21 -50 69 -53 88
-5 34 l35 -40 -33 48 c-18 26 -34 43 -37 36 -2 -7 -11 -3 -22 12 -10 13 -19
20 -19 16z"/>
<path d="M1835 2040 c3 -5 8 -10 11 -10 2 0 4 5 4 10 0 6 -5 10 -11 10 -5 0
-7 -4 -4 -10z"/>
<path d="M1829 2016 c26 -28 31 -31 31 -17 0 5 -12 17 -27 26 l-28 18 24 -27z"/>
<path d="M3665 5020 c11 -5 29 -8 40 -8 16 0 15 2 -5 8 -34 11 -60 11 -35 0z"/>
<path d="M3630 5010 c8 -5 22 -9 30 -9 10 0 8 3 -5 9 -27 12 -43 12 -25 0z"/>
<path d="M4198 4963 c6 -2 18 -2 25 0 6 3 1 5 -13 5 -14 0 -19 -2 -12 -5z"/>
<path d="M3346 4939 c3 -5 0 -9 -7 -9 -7 0 -10 -2 -8 -5 3 -2 18 -1 35 4 l29
8 -27 5 c-15 3 -25 1 -22 -3z"/>
<path d="M3255 4920 c27 -12 43 -12 25 0 -8 5 -22 9 -30 9 -10 0 -8 -3 5 -9z"/>
<path d="M4345 4840 c-3 -5 -1 -10 4 -10 6 0 11 5 11 10 0 6 -2 10 -4 10 -3 0
-8 -4 -11 -10z"/>
<path d="M6483 4755 c-3 -9 -3 -18 -1 -21 3 -3 8 4 11 16 6 23 -1 27 -10 5z"/>
<path d="M6605 4730 c-3 -5 -1 -10 4 -10 6 0 11 5 11 10 0 6 -2 10 -4 10 -3 0
-8 -4 -11 -10z"/>
<path d="M6626 4714 c-5 -13 -2 -15 14 -11 12 3 24 -1 30 -11 5 -10 10 -12 10
-5 0 13 -27 43 -40 43 -4 0 -11 -7 -14 -16z"/>
<path d="M6567 4671 c-3 -13 -1 -18 9 -14 7 2 10 11 7 19 -7 19 -10 18 -16 -5z"/>
<path d="M2614 4661 c13 -21 147 -93 162 -87 15 6 15 8 -1 26 -9 10 -46 30
-81 44 -67 27 -89 32 -80 17z"/>
<path d="M6607 4655 c3 -8 9 -12 14 -9 12 7 11 11 -5 17 -10 4 -13 1 -9 -8z"/>
<path d="M4655 4633 c4 -14 2 -23 -5 -23 -7 0 -9 -9 -5 -22 5 -21 5 -21 -9 2
-8 14 -12 28 -10 32 3 4 -2 5 -10 2 -13 -5 -12 -10 7 -35 20 -28 23 -29 34
-13 7 10 13 13 13 8 0 -6 7 -11 15 -11 8 0 15 4 15 9 0 5 4 6 10 3 6 -3 7 1 4
10 -4 9 -13 14 -20 11 -8 -3 -20 6 -29 22 -13 22 -15 23 -10 5z"/>
<path d="M2875 4480 c3 -5 11 -10 16 -10 6 0 7 5 4 10 -3 6 -11 10 -16 10 -6
0 -7 -4 -4 -10z"/>
<path d="M2976 4389 c12 -13 20 -16 22 -9 3 7 -2 16 -9 21 -25 16 -32 9 -13
-12z"/>
<path d="M6561 3463 c0 -25 1 -26 9 -8 12 27 12 35 0 35 -5 0 -10 -12 -9 -27z"/>
<path d="M6542 2835 c0 -16 2 -22 5 -12 2 9 2 23 0 30 -3 6 -5 -1 -5 -18z"/>
<path d="M6555 2799 c-4 -6 -5 -12 -2 -15 2 -3 7 2 10 11 7 17 1 20 -8 4z"/>
<path d="M6531 2654 c0 -11 3 -14 6 -6 3 7 2 16 -1 19 -3 4 -6 -2 -5 -13z"/>
<path d="M6550 2624 c0 -8 5 -12 10 -9 6 4 8 11 5 16 -9 14 -15 11 -15 -7z"/>
<path d="M6551 2574 c0 -11 3 -14 6 -6 3 7 2 16 -1 19 -3 4 -6 -2 -5 -13z"/>
<path d="M6485 2250 c-3 -6 1 -7 9 -4 18 7 21 14 7 14 -6 0 -13 -4 -16 -10z"/>
</g>
</svg>
